<svg width="28" height="28" viewBox="0 0 28 28" fill="none" xmlns="http://www.w3.org/2000/svg">
<path d="M13.6583 7.34172C14.114 7.79736 14.114 8.53603 13.6583 8.99166L9.81639 12.8334H21.0001C21.6444 12.8334 22.1667 13.3556 22.1667 14C22.1667 14.6443 21.6444 15.1667 21.0001 15.1667H9.81639L13.6583 19.0084C14.114 19.464 14.114 20.2027 13.6583 20.6583C13.2028 21.1139 12.464 21.1139 12.0084 20.6583L6.17507 14.825L6.08971 14.7297C6.08699 14.7263 6.08427 14.723 6.08161 14.7196L6.17507 14.825C6.13381 14.7837 6.09623 14.7401 6.06246 14.6945C6.04162 14.6664 6.02204 14.6373 6.0038 14.6075C5.9951 14.5934 5.98682 14.5791 5.97885 14.5647C5.96616 14.5417 5.95402 14.5179 5.94266 14.4936C5.93336 14.4738 5.9246 14.4536 5.9165 14.4332C5.90726 14.4101 5.89886 14.3871 5.89119 14.3637C5.88557 14.3463 5.88019 14.3284 5.87518 14.3103C5.86817 14.2852 5.86213 14.2599 5.85694 14.2343C5.85289 14.2139 5.84926 14.1936 5.84624 14.1733C5.8428 14.151 5.84008 14.128 5.83803 14.1048C5.83561 14.077 5.8341 14.0498 5.83362 14.0226C5.83343 14.015 5.83337 14.0076 5.83337 14L5.83362 13.9786C5.8341 13.951 5.83555 13.9234 5.83803 13.8959L5.83337 14C5.83337 13.941 5.83778 13.8829 5.84624 13.8262C5.84926 13.8064 5.85289 13.7861 5.857 13.7658C5.86213 13.7402 5.86817 13.7149 5.87506 13.6899C5.88019 13.6717 5.88557 13.6537 5.89143 13.6358C5.89886 13.6129 5.90726 13.5898 5.91632 13.5671C5.9246 13.5464 5.93336 13.5262 5.94266 13.5063C5.95402 13.4821 5.96616 13.4583 5.97909 13.435C5.98682 13.4209 5.9951 13.4066 6.00368 13.3925C6.02204 13.3627 6.04162 13.3337 6.0624 13.3057C6.06874 13.297 6.07521 13.2885 6.08179 13.2801C6.11067 13.2435 6.1419 13.2083 6.17507 13.1751L12.0084 7.34172C12.464 6.88609 13.2028 6.88609 13.6583 7.34172Z" fill="#8F8F8F"/>
</svg>
